<mxfile host="app.diagrams.net" modified="2020-12-24T20:06:13.966Z" agent="5.0 (Windows NT 10.0; Win64; x64) AppleWebKit/537.36 (KHTML, like Gecko) Chrome/87.0.4280.88 Safari/537.36" etag="f4nTa4afvr1POixDOBsg" version="14.1.2" type="github">
  <diagram id="FsoBTH2BJxN9NSH0PCR0" name="Page-1">
    <mxGraphModel dx="1038" dy="548" grid="1" gridSize="10" guides="1" tooltips="1" connect="1" arrows="1" fold="1" page="1" pageScale="1" pageWidth="1100" pageHeight="850" math="0" shadow="0">
      <root>
        <mxCell id="0" />
        <mxCell id="1" parent="0" />
        <mxCell id="XPlMJLxrSEBRhMhexCWZ-2" value="" style="fontColor=#0066CC;verticalAlign=top;verticalLabelPosition=bottom;labelPosition=center;align=center;html=1;outlineConnect=0;fillColor=#CCCCCC;strokeColor=#6881B3;gradientDirection=north;strokeWidth=2;shape=mxgraph.networks.server;" vertex="1" parent="1">
          <mxGeometry x="320" y="155" width="120" height="130" as="geometry" />
        </mxCell>
        <mxCell id="XPlMJLxrSEBRhMhexCWZ-8" value="" style="endArrow=classic;html=1;strokeWidth=3;strokeColor=#4F4F4F;" edge="1" parent="1">
          <mxGeometry width="50" height="50" relative="1" as="geometry">
            <mxPoint x="470" y="220" as="sourcePoint" />
            <mxPoint x="640" y="220" as="targetPoint" />
          </mxGeometry>
        </mxCell>
        <mxCell id="XPlMJLxrSEBRhMhexCWZ-9" value="" style="shape=image;html=1;verticalAlign=top;verticalLabelPosition=bottom;labelBackgroundColor=#ffffff;imageAspect=0;aspect=fixed;image=https://cdn3.iconfinder.com/data/icons/document-file-formats-2/512/9-128.png;sketch=0;" vertex="1" parent="1">
          <mxGeometry x="650" y="97" width="58" height="58" as="geometry" />
        </mxCell>
        <mxCell id="XPlMJLxrSEBRhMhexCWZ-10" value="" style="shape=image;html=1;verticalAlign=top;verticalLabelPosition=bottom;labelBackgroundColor=#ffffff;imageAspect=0;aspect=fixed;image=https://cdn3.iconfinder.com/data/icons/document-file-formats-2/512/9-128.png;sketch=0;" vertex="1" parent="1">
          <mxGeometry x="650" y="191" width="58" height="58" as="geometry" />
        </mxCell>
        <mxCell id="XPlMJLxrSEBRhMhexCWZ-11" value="" style="shape=image;html=1;verticalAlign=top;verticalLabelPosition=bottom;labelBackgroundColor=#ffffff;imageAspect=0;aspect=fixed;image=https://cdn3.iconfinder.com/data/icons/document-file-formats-2/512/9-128.png;sketch=0;" vertex="1" parent="1">
          <mxGeometry x="650" y="285" width="58" height="58" as="geometry" />
        </mxCell>
        <mxCell id="XPlMJLxrSEBRhMhexCWZ-12" value="" style="endArrow=classic;html=1;strokeWidth=3;strokeColor=#4F4F4F;" edge="1" parent="1">
          <mxGeometry width="50" height="50" relative="1" as="geometry">
            <mxPoint x="470" y="210" as="sourcePoint" />
            <mxPoint x="640" y="130" as="targetPoint" />
          </mxGeometry>
        </mxCell>
        <mxCell id="XPlMJLxrSEBRhMhexCWZ-13" value="" style="endArrow=classic;html=1;strokeWidth=3;strokeColor=#4F4F4F;" edge="1" parent="1">
          <mxGeometry width="50" height="50" relative="1" as="geometry">
            <mxPoint x="470" y="230" as="sourcePoint" />
            <mxPoint x="640" y="320" as="targetPoint" />
          </mxGeometry>
        </mxCell>
        <mxCell id="XPlMJLxrSEBRhMhexCWZ-14" value="" style="endArrow=none;dashed=1;html=1;strokeWidth=2;dashPattern=1 1;" edge="1" parent="1">
          <mxGeometry width="50" height="50" relative="1" as="geometry">
            <mxPoint x="680" y="400" as="sourcePoint" />
            <mxPoint x="680" y="350" as="targetPoint" />
          </mxGeometry>
        </mxCell>
        <mxCell id="XPlMJLxrSEBRhMhexCWZ-15" value="" style="shape=image;html=1;verticalAlign=top;verticalLabelPosition=bottom;labelBackgroundColor=#ffffff;imageAspect=0;aspect=fixed;image=https://cdn3.iconfinder.com/data/icons/document-file-formats-2/512/9-128.png;sketch=0;" vertex="1" parent="1">
          <mxGeometry x="650" y="410" width="58" height="58" as="geometry" />
        </mxCell>
        <mxCell id="XPlMJLxrSEBRhMhexCWZ-16" value="" style="endArrow=classic;html=1;strokeWidth=3;strokeColor=#4F4F4F;" edge="1" parent="1">
          <mxGeometry width="50" height="50" relative="1" as="geometry">
            <mxPoint x="465" y="240" as="sourcePoint" />
            <mxPoint x="640" y="440" as="targetPoint" />
          </mxGeometry>
        </mxCell>
        <mxCell id="XPlMJLxrSEBRhMhexCWZ-17" value="&lt;b&gt;&lt;font color=&quot;#4d4d4d&quot;&gt;01:00 - 02:00&lt;/font&gt;&lt;/b&gt;" style="text;html=1;strokeColor=none;fillColor=none;align=center;verticalAlign=middle;whiteSpace=wrap;rounded=0;sketch=0;rotation=-30;" vertex="1" parent="1">
          <mxGeometry x="510.8" y="149.97" width="79.88" height="20" as="geometry" />
        </mxCell>
        <mxCell id="XPlMJLxrSEBRhMhexCWZ-18" value="&lt;b&gt;&lt;font color=&quot;#4d4d4d&quot;&gt;02:00 - 03:00&lt;/font&gt;&lt;/b&gt;" style="text;html=1;strokeColor=none;fillColor=none;align=center;verticalAlign=middle;whiteSpace=wrap;rounded=0;sketch=0;" vertex="1" parent="1">
          <mxGeometry x="520" y="200" width="78" height="20" as="geometry" />
        </mxCell>
        <mxCell id="XPlMJLxrSEBRhMhexCWZ-19" value="&lt;b&gt;&lt;font color=&quot;#4d4d4d&quot;&gt;03:00 - 04:00&lt;/font&gt;&lt;/b&gt;" style="text;html=1;strokeColor=none;fillColor=none;align=center;verticalAlign=middle;whiteSpace=wrap;rounded=0;sketch=0;rotation=30;" vertex="1" parent="1">
          <mxGeometry x="512.68" y="250" width="80" height="20" as="geometry" />
        </mxCell>
        <mxCell id="XPlMJLxrSEBRhMhexCWZ-20" value="&lt;b&gt;&lt;font color=&quot;#4d4d4d&quot;&gt;23:00 - 00:00&lt;/font&gt;&lt;/b&gt;" style="text;html=1;strokeColor=none;fillColor=none;align=center;verticalAlign=middle;whiteSpace=wrap;rounded=0;sketch=0;rotation=50;" vertex="1" parent="1">
          <mxGeometry x="516.79" y="315.45" width="78" height="20" as="geometry" />
        </mxCell>
        <mxCell id="XPlMJLxrSEBRhMhexCWZ-22" value="&lt;font color=&quot;#545454&quot; size=&quot;1&quot;&gt;&lt;b&gt;&lt;i style=&quot;font-size: 20px&quot;&gt;Server&lt;/i&gt;&lt;/b&gt;&lt;/font&gt;" style="text;html=1;strokeColor=none;fillColor=none;align=center;verticalAlign=middle;whiteSpace=wrap;rounded=0;sketch=0;" vertex="1" parent="1">
          <mxGeometry x="360" y="304" width="40" height="20" as="geometry" />
        </mxCell>
        <mxCell id="XPlMJLxrSEBRhMhexCWZ-23" value="&lt;font color=&quot;#545454&quot; size=&quot;1&quot;&gt;&lt;b&gt;&lt;i style=&quot;font-size: 14px&quot;&gt;Log Files&lt;/i&gt;&lt;/b&gt;&lt;/font&gt;" style="text;html=1;strokeColor=none;fillColor=none;align=center;verticalAlign=middle;whiteSpace=wrap;rounded=0;sketch=0;" vertex="1" parent="1">
          <mxGeometry x="633.5" y="480" width="91" height="20" as="geometry" />
        </mxCell>
      </root>
    </mxGraphModel>
  </diagram>
</mxfile>
